<svg width="7.000000" height="10.000000" viewBox="0 0 7 10" fill="none" xmlns="http://www.w3.org/2000/svg" xmlns:xlink="http://www.w3.org/1999/xlink">
	<desc>
			Created with Pixso.
	</desc>
	<defs/>
	<path id="Vector" d="M3.49 0C1.56 0 -0.01 1.55 -0.01 3.47C-0.01 5.88 3.5 10 3.5 10C3.5 10 6.99 5.76 6.99 3.47C6.99 1.55 5.42 0 3.49 0ZM4.55 4.49C4.26 4.78 3.88 4.92 3.49 4.92C3.11 4.92 2.73 4.78 2.44 4.49C1.86 3.91 1.86 2.97 2.44 2.39C2.72 2.11 3.09 1.96 3.49 1.96C3.89 1.96 4.27 2.11 4.55 2.39C5.13 2.97 5.13 3.91 4.55 4.49Z" fill="#FFFFFF" fill-opacity="1.000000" fill-rule="nonzero"/>
</svg>
