<svg width="12.000000" height="12.000000" viewBox="0 0 12 12" fill="none" xmlns="http://www.w3.org/2000/svg" xmlns:xlink="http://www.w3.org/1999/xlink">
	<desc>
			Created with Pixso.
	</desc>
	<defs/>
	<path id="Vector" d="M1.5 1.5C2.48 0.53 3.77 0 5.15 0C6.52 0 7.82 0.53 8.79 1.5C9.76 2.48 10.3 3.77 10.3 5.15C10.3 6.41 9.85 7.59 9.03 8.53L11.89 11.39C12.03 11.53 12.03 11.75 11.89 11.89C11.82 11.96 11.73 12 11.64 12C11.55 12 11.46 11.96 11.39 11.89L8.53 9.03C7.59 9.85 6.41 10.3 5.15 10.3C3.77 10.3 2.48 9.76 1.5 8.79C0.53 7.82 -1.53e-5 6.52 -1.53e-5 5.15C-1.53e-5 3.77 0.53 2.48 1.5 1.5ZM2 8.29C3.74 10.03 6.56 10.03 8.29 8.29C10.03 6.56 10.03 3.74 8.29 2C7.43 1.13 6.29 0.7 5.15 0.7C4.01 0.7 2.87 1.13 2 2C0.27 3.74 0.27 6.56 2 8.29Z" fill="#939393" fill-opacity="1.000000" fill-rule="nonzero"/>
</svg>
