<svg xmlns="http://www.w3.org/2000/svg" xmlns:xlink="http://www.w3.org/1999/xlink" fill="none" viewBox="238.5 201 238.5 201">
	<desc>
			Created with Pixso.
	</desc>
	<defs>
		<filter id="filter_1_28_dd" x="238.500000" y="201.000000" width="238.500153" height="201.000061" filterUnits="userSpaceOnUse" color-interpolation-filters="sRGB">
			<feFlood flood-opacity="0" result="BackgroundImageFix"/>
			<feGaussianBlur in="BackgroundImage" stdDeviation="10"/>
			<feComposite in2="SourceAlpha" operator="in" result="effect_backgroundBlur_1"/>
			<feBlend mode="normal" in="SourceGraphic" in2="effect_backgroundBlur_1" result="shape"/>
		</filter>
		<linearGradient id="paint_linear_1_28_0" x1="162.838562" y1="-80.121674" x2="484.591461" y2="316.169098" gradientUnits="userSpaceOnUse">
			<stop stop-color="#C4C4C4"/>
			<stop offset="1.000000" stop-color="#C4C4C4" stop-opacity="0.000000"/>
		</linearGradient>
	</defs>
	<g filter="url(#filter_1_28_dd)">
		<path id="bg logo" d="M238.5 402C281.91 402 322.64 392.19 357.73 375.06C395.35 356.77 424.8 331.12 445.03 301.5C466.75 269.81 477.04 235.18 477 201L238.5 201L238.5 402Z" fill="url(#paint_linear_1_28_0)" fill-opacity="0.030000" fill-rule="evenodd"/>
	</g>
	<path id="Vector" d="M320.42 292.28C319.14 288.73 316.51 286.96 312.53 286.95L311.28 286.95L311.28 308.84L312.53 308.84C315.61 308.84 317.88 307.63 319.34 305.21C320.57 303.14 321.19 300.51 321.19 297.31C321.19 295.41 320.93 293.73 320.42 292.28Z" fill="#FFFFFF" fill-opacity="1.000000" fill-rule="nonzero"/>
	<path id="Vector" d="M298.88 292.54C300.16 296.09 302.78 297.86 306.76 297.86L308.01 297.86L308.01 275.98L306.76 275.98C303.68 275.98 301.42 277.19 299.95 279.61C298.72 281.68 298.11 284.31 298.11 287.51C298.11 289.41 298.36 291.08 298.88 292.54Z" fill="#FFFFFF" fill-opacity="1.000000" fill-rule="nonzero"/>
	<path id="Vector" d="M278 241.02L294.69 241.02L294.69 246.82L283.99 246.82L283.99 249.72L292.88 249.72L292.88 255.22L283.99 255.22L283.99 258.15L294.69 258.15L294.69 263.95L278 263.95L278 241.02Z" fill="#FFFFFF" fill-opacity="1.000000" fill-rule="nonzero"/>
	<path id="Vector" d="M303.09 241L324.7 241L313.89 264.41L303.09 241ZM313.89 261.51L322.82 242.21L305 242.21L313.89 261.51Z" fill="#FFFFFF" fill-opacity="1.000000" fill-rule="nonzero"/>
	<path id="Vector" d="M333.32 241.02L350.02 241.02L350.02 246.82L339.32 246.82L339.32 249.72L348.21 249.72L348.21 255.22L339.32 255.22L339.32 258.15L350.02 258.15L350.02 263.95L333.32 263.95L333.32 241.02Z" fill="#FFFFFF" fill-opacity="1.000000" fill-rule="nonzero"/>
	<path id="Vector" d="M360.3 263.91L360.3 241L361.58 241L377.59 256.57L377.59 241L378.81 241L378.81 263.92L360.3 263.91Z" fill="#FFFFFF" fill-opacity="1.000000" fill-rule="nonzero"/>
	<path id="Vector" d="M396.3 263.95L396.3 246.82L387.63 246.82L387.63 241.02L406.14 241.02L406.14 246.82L397.48 246.82L397.48 263.95L396.3 263.95Z" fill="#FFFFFF" fill-opacity="1.000000" fill-rule="nonzero"/>
	<path id="Vector" d="M287.84 280.54C289.29 280.54 290.44 280.76 291.3 281.2C292.28 281.68 293.11 282.43 293.68 283.37C294.25 284.3 294.55 285.38 294.53 286.47C294.53 287.53 294.24 288.56 293.67 289.45C293.1 290.37 292.29 291.11 291.33 291.61C292.52 292.03 293.56 292.78 294.33 293.78C295.13 294.77 295.56 296.01 295.55 297.28C295.56 298.38 295.25 299.47 294.68 300.42C294.11 301.36 293.31 302.14 292.35 302.68C291.85 302.95 291.3 303.15 290.74 303.27C290.15 303.4 289.36 303.47 288.37 303.47L278.22 303.47L278.22 280.54L287.84 280.54Z" fill="#FFFFFF" fill-opacity="1.000000" fill-rule="nonzero"/>
	<path id="Vector" d="M326.46 301.8C324.73 300.3 323.88 298.04 323.91 295.04L329.27 295.04C329.25 296.29 329.62 297.24 330.39 297.9C331.16 298.56 332.24 298.89 333.62 298.89C334.76 298.89 335.66 298.7 336.32 298.33C336.98 297.96 337.31 297.38 337.31 296.62C337.31 295.98 336.97 295.52 336.3 295.23C335.67 294.96 335 294.75 334.31 294.62C333.65 294.5 333.25 294.43 333.09 294.4C331.6 294.13 330.14 293.72 328.71 293.2C327.52 292.75 326.45 292.02 325.62 291.06C324.78 290.09 324.37 288.82 324.37 287.24C324.37 285.65 324.78 284.31 325.62 283.2C326.45 282.09 327.57 281.26 328.96 280.71C330.42 280.15 331.96 279.88 333.52 279.89C335.52 279.89 337.25 280.26 338.71 281.01C340.17 281.76 341.32 282.89 342.15 284.4C342.54 285.04 342.8 285.75 342.91 286.49C342.99 287.14 343.04 287.8 343.04 288.45L337.67 288.45C337.67 287.27 337.35 286.4 336.72 285.84C336.08 285.28 335.09 285 333.75 285C332.68 285 331.84 285.18 331.25 285.56C330.66 285.93 330.36 286.43 330.36 287.07C330.36 287.77 330.76 288.29 331.55 288.62C332.52 289 333.52 289.3 334.54 289.51C336.52 289.9 338.06 290.28 339.17 290.64C340.29 291.01 341.28 291.68 342.05 292.57C342.86 293.49 343.27 294.79 343.27 296.46C343.27 298.04 342.83 299.4 341.95 300.54C341.07 301.68 339.92 302.56 338.48 303.16C337 303.77 335.42 304.08 333.82 304.07C330.63 304.06 328.18 303.31 326.46 301.8Z" fill="#FFFFFF" fill-opacity="1.000000" fill-rule="nonzero"/>
	<path id="Vector" d="M356.77 303.47L356.77 286.34L348.11 286.34L348.11 280.54L366.62 280.54L366.62 286.34L357.96 286.34L357.96 303.47L356.77 303.47Z" fill="#FFFFFF" fill-opacity="1.000000" fill-rule="nonzero"/>
	<path id="Vector" d="M372.85 280.54L389.54 280.54L389.54 286.34L378.84 286.34L378.84 289.24L387.73 289.24L387.73 294.74L378.84 294.74L378.84 297.67L389.54 297.67L389.54 303.47L372.85 303.47L372.85 280.54Z" fill="#FFFFFF" fill-opacity="1.000000" fill-rule="nonzero"/>
	<path id="Vector" d="M414.28 303.47L396.66 303.47L396.66 280.54L405.58 280.54C407.49 280.54 409.05 280.88 410.26 281.57C411.41 282.19 412.37 283.13 413.02 284.26C413.69 285.42 414.03 286.73 414.01 288.05C414.03 289.72 413.47 291.34 412.43 292.65C411.44 293.96 410.04 294.9 408.45 295.33L414.28 303.47ZM397.87 282.55L397.87 294.38L406.34 294.38L397.87 282.55ZM397.87 302.25L411.97 302.25L407.16 295.56L406.14 295.6L397.87 295.6L397.87 302.25ZM398.73 281.76L407.69 294.28C409.13 293.99 410.42 293.21 411.35 292.07C412.3 290.95 412.81 289.52 412.79 288.05C412.81 286.89 412.5 285.75 411.9 284.76C411.31 283.77 410.44 282.98 409.4 282.49C408.44 282 407.17 281.76 405.61 281.76L398.73 281.76Z" fill="#FFFFFF" fill-opacity="1.000000" fill-rule="nonzero"/>
</svg>