<svg width="29.000000" height="20.000000" viewBox="0 0 29 20" fill="none" xmlns="http://www.w3.org/2000/svg" xmlns:xlink="http://www.w3.org/1999/xlink">
	<desc>
			Created with Pixso.
	</desc>
	<defs/>
	<path id="Vector" d="M0 -0.17L3.22 -0.17L3.22 19.16L0 19.16L0 -0.17Z" fill="#0E0E0E" fill-opacity="1.000000" fill-rule="evenodd"/>
	<path id="Vector" d="M8.1 -0.17L11.32 -0.17L11.32 19.16L8.1 19.16L8.1 -0.17Z" fill="#0E0E0E" fill-opacity="1.000000" fill-rule="evenodd"/>
	<path id="Vector" d="M12.98 -0.17L16.2 -0.17L16.2 19.16L12.98 19.16L12.98 -0.17Z" fill="#0E0E0E" fill-opacity="1.000000" fill-rule="evenodd"/>
	<path id="Vector" d="M24.21 -0.17L28.99 -0.17L28.99 19.16L24.21 19.16L24.21 -0.17Z" fill="#0E0E0E" fill-opacity="1.000000" fill-rule="evenodd"/>
	<path id="Vector" d="M4.88 -0.17L6.44 -0.17L6.44 19.16L4.88 19.16L4.88 -0.17Z" fill="#0E0E0E" fill-opacity="1.000000" fill-rule="evenodd"/>
	<path id="Vector" d="M17.77 -0.17L19.33 -0.17L19.33 19.16L17.77 19.16L17.77 -0.17Z" fill="#0E0E0E" fill-opacity="1.000000" fill-rule="evenodd"/>
	<path id="Vector" d="M20.99 -0.17L22.55 -0.17L22.55 19.16L20.99 19.16L20.99 -0.17Z" fill="#0E0E0E" fill-opacity="1.000000" fill-rule="evenodd"/>
</svg>
